<?xml version="1.0" encoding="UTF-8" standalone="no"?>
<!-- Created with Inkscape (http://www.inkscape.org/) -->

<svg
   width="21.768227mm"
   height="33.404968mm"
   viewBox="0 0 21.768227 33.404968"
   version="1.1"
   id="svg5"
   sodipodi:docname="favicon.svg"
   inkscape:version="1.1.2 (b8e25be8, 2022-02-05)"
   xmlns:inkscape="http://www.inkscape.org/namespaces/inkscape"
   xmlns:sodipodi="http://sodipodi.sourceforge.net/DTD/sodipodi-0.dtd"
   xmlns="http://www.w3.org/2000/svg"
   xmlns:svg="http://www.w3.org/2000/svg">
  <sodipodi:namedview
     id="namedview7"
     pagecolor="#ffffff"
     bordercolor="#666666"
     borderopacity="1.0"
     inkscape:pageshadow="2"
     inkscape:pageopacity="0.0"
     inkscape:pagecheckerboard="0"
     inkscape:document-units="mm"
     showgrid="false"
     inkscape:zoom="1.8116734"
     inkscape:cx="30.082684"
     inkscape:cy="93.007932"
     inkscape:window-width="2560"
     inkscape:window-height="1387"
     inkscape:window-x="0"
     inkscape:window-y="25"
     inkscape:window-maximized="1"
     inkscape:current-layer="layer1"
     fit-margin-top="0"
     fit-margin-left="0"
     fit-margin-right="0"
     fit-margin-bottom="0" />
  <defs
     id="defs2">
    <rect
       x="54.645611"
       y="502.29803"
       width="109.29122"
       height="92.731941"
       id="rect3234" />
  </defs>
  <g
     inkscape:label="Layer 1"
     inkscape:groupmode="layer"
     id="layer1"
     transform="translate(-138.5231,-130.39083)">
    <path
       style="fill:#96a9ef;fill-opacity:1;stroke:none;stroke-width:0.264583px;stroke-linecap:butt;stroke-linejoin:miter;stroke-opacity:1"
       d="m 139.97389,148.35294 c 0,0 1.15009,0.073 1.31439,0.0548 0.1643,-0.0183 0.56592,-0.0183 1.33265,-0.0183 0.76673,0 2.42797,0.23732 2.90262,0.38337 0.47464,0.14604 1.3509,0.51115 2.30018,1.07707 0.94929,0.56592 2.11764,1.55171 2.53751,1.82554 0.41988,0.27384 1.75252,1.09533 2.22716,1.29614 0.47465,0.20081 1.60648,0.54766 2.3367,0.67545 0.73022,0.12779 2.57402,0.20081 2.8296,0.20081 0.25557,0 1.88031,-0.43813 1.88031,-0.43813 l -0.12779,1.3509 -1.11358,3.63284 -1.60648,2.04461 -2.46449,1.93508 -2.0081,0.69371 -1.64299,0.40161 c 0,0 -2.21579,-0.10221 -2.29324,-0.10221 -0.0774,0 -2.37518,-0.4518 -2.46554,-0.51634 -0.0904,-0.0645 -3.52403,-2.15573 -3.52403,-2.15573 l -1.22631,-1.58775 -0.5938,-0.96814 c 0,0 -0.73579,-1.31667 -0.7616,-1.38122 -0.0258,-0.0645 -0.38726,-1.76847 -0.38726,-1.76847 l -0.14199,-1.14886 -0.0775,-2.06537 0.37435,-1.84592 z"
       id="path7431" />
    <path
       style="fill:#cdd4f7;fill-opacity:0.278761;stroke:#000000;stroke-width:0.965;stroke-linecap:butt;stroke-linejoin:miter;stroke-miterlimit:4;stroke-dasharray:none;stroke-opacity:1"
       d="m 150.06955,163.3133 c -0.10953,-0.0183 -1.13184,-0.0183 -1.3509,-0.0548 -0.21907,-0.0365 -0.52941,0 -1.18661,-0.12779 -0.65719,-0.12778 -1.09532,-0.23732 -1.09532,-0.23732 l -2.02636,-0.91277 c 0,0 -1.46044,-0.87624 -1.58822,-0.96754 -0.12779,-0.0913 -1.11359,-1.04056 -1.11359,-1.04056 l -1.0223,-1.44218 c 0,0 -0.9493,-1.53346 -0.9858,-1.64299 -0.0365,-0.10953 -0.38336,-1.25963 -0.38336,-1.25963 l -0.31034,-1.75252 0.073,-2.70181 0.41987,-1.62473 0.62069,-1.46044 0.93103,-1.5152 0.87626,-0.83975 c 0,0 0.76671,-0.82147 0.85801,-0.91277 0.0913,-0.0913 0.91277,-0.56592 1.05881,-0.67545 0.14605,-0.10954 0.87626,-0.5659 0.9858,-0.6572 0.10953,-0.0913 0.76673,-0.31034 0.76673,-0.31034 l 0.16103,-0.25401 v -8.72618 l -0.59917,-0.29359 c 0,0 -0.18255,-0.0913 -0.34685,-0.23732 -0.16432,-0.14606 -0.16432,-0.0913 -0.23732,-0.21906 -0.073,-0.12779 -0.1095,-0.14605 -0.1643,-0.3286 -0.0548,-0.18255 -0.073,-0.10953 -0.0913,-0.3286 -0.0182,-0.21906 -0.0182,-0.20081 -0.0182,-0.38336 0,-0.18256 -0.073,-0.20081 0.0182,-0.41988 0.0914,-0.21906 0.0548,-0.20081 0.14605,-0.34685 0.0914,-0.14604 0,-0.10953 0.18255,-0.27383 0.18256,-0.16428 0.18256,-0.16428 0.29209,-0.25558 0.10953,-0.0913 0.43813,-0.23732 0.43813,-0.23732 h 3.8519 4.12575 l 0.45639,0.18256 0.36511,0.36511 c 0,0 0.20994,0.31947 0.21906,0.35598 0.009,0.0365 0.0548,0.37423 0.0548,0.37423 0,0 0.0365,0.27384 0.0365,0.3286 0,0.0548 -0.0183,0.23732 -0.0274,0.29209 -0.009,0.0548 -0.15517,0.34685 -0.20081,0.429 -0.0456,0.0822 -0.11866,0.14605 -0.17343,0.21907 -0.0548,0.073 -0.38336,0.31034 -0.38336,0.31034 0,0 -0.21907,0.10953 -0.25558,0.11866 -0.0365,0.009 -0.57505,0.20994 -0.57505,0.20994 v 8.91779 l 0.2282,0.25557 c 0,0 0.58417,0.21907 0.62068,0.2282 0.0365,0.009 0.69371,0.28296 0.79411,0.35598 0.10041,0.073 1.06795,0.70283 1.06795,0.70283 l 0.70283,0.60243 0.73022,0.69371 0.99492,1.24137 0.57505,0.91277 c 0,0 0.37424,0.79411 0.40162,0.85801 0.0274,0.0639 0.35598,1.23224 0.37424,1.26875 0.0183,0.0365 0.31034,1.40567 0.31034,1.40567 l 0.10953,0.85801 c 0,0 0.0274,0.83975 0.0274,0.88539 0,0.0456 -0.0183,0.94015 -0.0183,0.94015 l -0.15517,1.22312 -0.40162,1.11358 -0.7576,1.54259 -0.9219,1.36003 -0.9219,0.94015 -1.58823,1.27789 c 0,0 -0.73934,0.29208 -0.94928,0.41074 -0.20994,0.11866 -1.98072,0.74848 -2.09025,0.76673 -0.10953,0.0183 -1.93506,0.49293 -1.93506,0.49293 z"
       id="path7429" />
    <circle
       style="fill:#ccd5f7;fill-opacity:1;stroke:#000000;stroke-width:0.55;stroke-miterlimit:4;stroke-dasharray:none;stroke-opacity:1"
       id="path10633"
       cx="142.83089"
       cy="155.1886"
       r="1.6612461" />
    <circle
       style="fill:#ccd5f7;fill-opacity:1;stroke:#000000;stroke-width:0.48;stroke-miterlimit:4;stroke-dasharray:none;stroke-opacity:1"
       id="circle11209"
       cx="145.49023"
       cy="158.89345"
       r="0.98804283" />
    <circle
       style="fill:#ccd5f7;fill-opacity:1;stroke:#000000;stroke-width:0.435;stroke-miterlimit:4;stroke-dasharray:none;stroke-opacity:1"
       id="circle11211"
       cx="146.54855"
       cy="155.71849"
       r="0.44948024" />
    <g
       id="g4624"
       transform="matrix(0.43615073,0,0,0.43615073,117.28014,84.016288)"
       style="stroke-width:7.87801;stroke-miterlimit:4;stroke-dasharray:none">
      <path
         id="path4359"
         style="fill:#ff2a2a;stroke:#ff0000;stroke-width:1.91677;stroke-linecap:butt;stroke-linejoin:miter;stroke-miterlimit:4;stroke-dasharray:none;stroke-opacity:1"
         d="m 73.709577,166.59925 c -1.530478,-3.06087 -3.142693,-6.12545 -5.587755,-8.56675 -1.950561,-2.59412 -3.79636,-5.29317 -5.398893,-8.11292 -0.815132,-2.23567 -1.553438,-5.20064 0.352916,-7.12379 1.567635,-1.83414 4.940868,-2.39187 6.749025,-0.66736 1.238621,1.48328 3.102831,5.00157 5.333105,3.06753 0.77678,-1.83132 1.886258,-3.46273 3.932028,-4.01586 2.444559,-1.05182 5.723707,0.27897 6.311647,2.99599 1.200456,3.6162 -1.047216,7.08401 -3.350606,9.68758 -2.29147,2.96806 -5.590788,5.3382 -6.659665,9.08553 -0.412355,1.28727 -1.057474,2.46063 -1.681802,3.65005 z" />
      <g
         aria-label="♡"
         transform="matrix(2.1287599,0,0,2.1287599,-57.098417,-937.30581)"
         id="text3232"
         style="font-size:18.6667px;line-height:1.25;-inkscape-font-specification:'sans-serif, Normal';word-spacing:0px;white-space:pre;shape-inside:url(#rect3234);stroke-width:3.80846;stroke-miterlimit:4;stroke-dasharray:none">
        <path
           d="m 61.500663,508.30036 q 0.546876,-1.07552 1.212242,-1.60417 0.665366,-0.52865 1.677087,-0.52865 1.294273,0 2.169274,0.86589 0.875002,0.85677 0.875002,2.17839 0,0.92057 -0.401043,1.84115 -0.401042,0.91146 -1.485679,2.26953 -1.72266,2.16928 -2.351567,3.13543 -0.628907,0.96614 -1.221356,2.34245 -0.227865,0.52864 -0.419272,0.52864 h -0.11849 q -0.182292,0 -0.410157,-0.52864 -0.592449,-1.34896 -1.212242,-2.306 -0.610678,-0.95703 -2.369795,-3.17188 -1.075523,-1.35807 -1.48568,-2.26953 -0.401043,-0.92058 -0.401043,-1.84115 0,-1.33985 0.875002,-2.1875 0.875002,-0.85678 2.169275,-0.85678 1.01172,0 1.677086,0.52865 0.665366,0.52865 1.221356,1.60417 z m 0.09115,10.26304 q 0.519533,-1.23047 1.230471,-2.33334 0.720054,-1.10287 2.169275,-2.90756 1.102867,-1.38542 1.549482,-2.26042 0.446615,-0.875 0.446615,-1.85026 0,-1.17578 -0.729167,-1.88672 -0.720054,-0.71094 -1.868493,-0.71094 -1.002606,0 -1.658858,0.63802 -0.656251,0.63802 -1.230471,1.83203 -0.574219,-1.19401 -1.239585,-1.83203 -0.656251,-0.63802 -1.658857,-0.63802 -1.14844,0 -1.868493,0.72005 -0.720054,0.71094 -0.720054,1.87761 0,0.97526 0.437501,1.85026 0.446616,0.875 1.558597,2.26042 1.440106,1.80469 2.151045,2.90756 0.720054,1.10287 1.239586,2.33334 z"
           id="path4287"
           style="stroke-width:3.80846;stroke-miterlimit:4;stroke-dasharray:none" />
      </g>
    </g>
  </g>
</svg>
